<svg fill="none" height="48" viewBox="0 0 48 48" width="48" xmlns="http://www.w3.org/2000/svg"><path d="m35.9252 7.69172v-2.69162h-2.5461v1.94969h-2.6996v-1.94969h-2.5497v1.94969h-2.6992v-1.94969h-2.5495v1.94969h-2.6998v-1.94969h-2.5495v1.94969h-2.6996v-1.94969h-2.5461v2.69162c-.07 7.89238.8476 15.31978 5.5964 21.12838 1.752 2.0558 3.8374 3.7935 6.1734 4.5879 2.336-.7944 4.4208-2.5321 6.1729-4.5879 4.749-5.8086 5.6663-13.236 5.5964-21.12838" fill="#2f97da"/><path d="m20.2566 12.9539v17.3697c1.2053 1.0442 2.4726 1.9527 3.8993 2.4432 1.4269-.4905 2.694-1.399 3.8991-2.4432v-17.3697z" fill="#fff"/><path d="m33.9754 5.59999.0038 1.94959h-3.8996v-1.94959h-1.3498v1.94959h-3.8991v-1.94959h-1.3497v1.94959h-3.8994v-1.94959h-1.3499v1.94959h-3.8964l.0005-1.94959h-1.3467v6.74891h22.3332v-6.74891z" fill="#fff"/><g fill="#2f97da"><path d="m28.1898 11.7435v-3.59175h2.7954v.55358h-2.0324v.82321h1.7662v.53886h-1.7662v1.6761z"/><path d="m22.5519 10.3488c.2546 0 .4608-.2062.4608-.46104 0-.25443-.2062-.46134-.4608-.46134-.2547 0-.4614.20691-.4614.46134 0 .25484.2067.46104.4614.46104z"/><path d="m27.1337 10.3788c.2542 0 .4608-.2067.4608-.46135 0-.25443-.2066-.46105-.4608-.46105-.2547 0-.4607.20662-.4607.46105 0 .25465.206.46135.4607.46135z"/><path d="m19.441 11.7435h.3443l1.1524-2.79855v2.79855h.6432v-3.59175h-1.0475l-1.0924 2.49925-1.0925-2.49925h-1.0474v3.59175h.6435v-2.78374l1.1674 2.78374z"/><path d="m23.5419 11.7435v-3.59175h2.7955v.55358h-2.0325v.82321h1.7662v.53886h-1.7662v1.6761z"/><path d="m26.2514 41.7004-1.2854-.031-.8101-.9619-.8102.9619-1.2853.031.5477 1.1534-.5477 1.1534 1.2853.0308.8102.9621.8101-.9621 1.2854-.0308-.5478-1.1534z"/><path d="m16.6709 33.31c.0709.0539.1391.113.2164.156.0773.0425.1691.0719.2522.1036-.6517 1.578-1.1917 2.8505-1.6129 4.0517-.1484-.0966-.2879-.1959-.4423-.2815-.1542-.0855-.3014-.1455-.4617-.2201.442-.9008.7996-1.8059 1.188-2.7008-.8869.6112-1.7686 1.2254-2.6341 1.8628-.0655-.0508-.1288-.093-.2094-.1162.069-.9568.1077-2.0531.1686-3.1509-.6648.8999-1.1784 1.6174-1.6232 2.3802-.0818-.0602-.1554-.1225-.2436-.1712-.0883-.0494-.1745-.0753-.2689-.1133.8132-.9983 1.6993-2.1792 2.6603-3.4706.0713.0542.1337.1105.2108.1532.0773.0428.1637.0692.2472.1011-.0835 1.0856-.1251 2.1872-.1697 3.2949.8315-.5631 1.7803-1.1686 2.7223-1.8789"/><path d="m18.3382 36.7471c-.1701.0265-.4589.0079-.6729.1006-.1923.0856-.2778.2586-.3299.4533-.0599.2253-.057.5067.2046.5766.3716.0996.5466-.2387.6402-.5399zm.5568 1.2843c-.0599.2253-.0126.3162.2339.3691l-.0374.14c-.1639.0278-.4214.0633-.5917.0179-.2863-.0765-.4582-.3117-.4841-.6058-.2331.2379-.5815.3208-.8981.2361-.4994-.1336-.7974-.5071-.6556-1.0365.1546-.5785.5532-.6546 1.3632-.6337.162.0041.3303.0099.4867-.0393.091-.0475.1304-.1215.1548-.213.0782-.2922-.1549-.6157-.4348-.6904-.3898-.1043-.7779.0788-.8439.1788l-.0425-.0115.0183-.3864c.3581-.1915.8519-.2095 1.2358-.1067.5113.1368 1.1013.5162.9385 1.1253z"/><path d="m20.593 39.0188c-.14-.0399-.2786-.0861-.4208-.1139-.1422-.0276-.2881-.0365-.4328-.052l.914-4.7008c.1396.0401.2783.0864.4207.1139.1422.0274.2882.0369.4328.052z"/><path d="m21.9707 36.1091c.1445.0151.2894.0366.4343.0393.145.0026.2905-.0139.4356-.0236l-.0085.4726c.1885-.2994.5707-.5195.9363-.513.3972.0072.7027.2084.8281.589.2268-.3301.5529-.5639.9687-.5565.7315.0133.976.4465.964 1.1213l-.0365 2.0109c-.1447-.0151-.2895-.0367-.4343-.0393-.1452-.0024-.2907.0137-.4358.0235l.0309-1.7083c.0076-.4224-.0222-.8772-.4446-.8846-.4476-.0082-.5283.2741-.5355.6652l-.0345 1.91c-.1446-.0149-.2894-.0363-.4344-.039-.1449-.0028-.2903.0136-.4355.0235l.0308-1.7086c.0077-.4222-.022-.877-.4444-.8845-.435-.0078-.5305.3876-.5367.7344l-.0333 1.8409c-.1446-.0151-.2893-.0365-.4344-.0393-.145-.0027-.2906.0137-.4357.0236z"/><path d="m27.4888 35.159c-.0331-.2116.1297-.4347.3414-.4683.2176-.0343.4329.117.4681.3411.0351.2239-.1168.4327-.3411.4683-.2054.0322-.4358-.1356-.4684-.3411zm2.1166-.3327c.0342.2179-.1169.4328-.3346.4671-.2242.0352-.4405-.1219-.4745-.34-.0343-.2178.1291-.4351.3468-.4691.2121-.0334.4289.1304.4623.342zm-1.2814 2.6827c.0627.3984.2448 1.2308.7862 1.1457.4775-.0878.4949-.8688.3874-1.5535-.0952-.6037-.3309-1.0898-.7481-1.0243-.5041.0796-.541.6976-.4255 1.4321zm-.918.1635c-.1537-.9773.3096-1.7198 1.2619-1.8697.9403-.1478 1.6217.3317 1.7663 1.2532.1488.946-.3025 1.7251-1.2799 1.8786-.9211.145-1.6037-.341-1.7483-1.2621"/><path d="m33.8582 37.4666c-.1479.0551-.2987.1043-.4416.1709-.1429.0665-.2778.1501-.4151.228l-1.8249-3.919 2.1767-1.0134c.0256.0851.0485.1789.086.259.037.0797.0943.1576.1427.232-.367.1225-.7572.2555-1.3567.5347l.5716 1.2283.6056-.2819c.2227-.1037.4409-.2329.6674-.3733.0258.0852.0486.179.086.2588.0372.0801.0942.1579.1429.2325-.2507.0889-.4924.1668-.7209.273l-.5999.2795z"/><path d="m36.9993 35.9566c-.1461.0602-.2952.1147-.4355.1862-.1404.0715-.2722.1595-.407.2424l-1.9603-3.853 2.1399-1.089c.0288.0846.0548.1771.0947.2561.0403.0785.0998.1541.1509.2269-.3626.1351-.7476.2816-1.3374.5816l.6144 1.2078.5955-.303c.2189-.1115.4323-.2484.6539-.3963.0289.0842.055.177.0948.2558.0399.0785.0999.1542.151.2272-.2475.0974-.4864.1837-.711.2982l-.5897.3001z"/></g></svg>